<svg id="Layer_1" data-name="Layer 1" xmlns="http://www.w3.org/2000/svg" viewBox="0 0 148.63 99.57"><defs><style>.cls-1{fill:#f3b721;}.cls-2{fill:#ffefcc;}.cls-3{fill:none;}.cls-3,.cls-4{stroke:#000;stroke-linecap:round;stroke-linejoin:round;stroke-width:3px;}.cls-4{fill:#dbdbdb;}</style></defs><polygon class="cls-1" points="145.72 16.98 145.72 85.13 80.32 96.91 74.63 85.13 134.54 72.84 134.54 4.46 145.72 16.98"/><polygon class="cls-2" points="134.54 4.46 134.54 72.84 74.63 85.13 74.63 37.07 134.54 4.46"/><polygon class="cls-2" points="74.63 85.13 80.32 96.91 68.94 96.91 74.63 85.13"/><polygon class="cls-2" points="74.63 37.07 74.63 85.13 14.73 72.84 14.73 4.46 74.63 37.07"/><polygon class="cls-1" points="74.63 85.13 68.94 96.91 3.55 85.13 3.55 16.98 14.73 4.46 14.73 72.84 74.63 85.13"/><polyline class="cls-3" points="74.63 37.07 14.73 4.46 14.73 72.84 74.63 85.13"/><polyline class="cls-3" points="14.73 4.46 3.55 16.98 3.55 85.13 68.94 96.91 74.63 85.13"/><polygon class="cls-3" points="134.54 4.46 134.54 72.84 74.63 85.13 74.63 37.07 134.54 4.46"/><polyline class="cls-3" points="134.54 4.46 145.72 16.98 145.72 85.13 80.32 96.91 74.63 85.13"/><line class="cls-3" x1="68.94" y1="96.91" x2="80.32" y2="96.91"/><line class="cls-4" x1="14.73" y1="72.84" x2="3.55" y2="85.13"/><line class="cls-4" x1="134.54" y1="72.84" x2="145.72" y2="85.13"/></svg>